<?xml version="1.0" encoding="UTF-8"?>
<svg xmlns="http://www.w3.org/2000/svg" viewBox="0 0 1400 1000" width="1400" height="1000" font-family="monospace, sans-serif">

  <!-- BACKGROUND -->
  <rect width="1400" height="1000" fill="#0d1117"/>

  <!-- TITLE BLOCK -->
  <rect x="10" y="10" width="1380" height="50" fill="none" stroke="#1e6fa8" stroke-width="2"/>
  <text x="700" y="30" text-anchor="middle" fill="#58a6ff" font-size="18" font-weight="bold">THE VOODOO HUT -- AV SYSTEM BLUEPRINT</text>
  <text x="700" y="50" text-anchor="middle" fill="#8b949e" font-size="12">511 Bradford Ave, Kemah, TX 77565 | 14,000 sq ft | 3 Stages | 15 Audio Zones | 37 TVs</text>

  <!-- PROPERTY BOUNDARY -->
  <rect x="80" y="80" width="1250" height="870" fill="none" stroke="#30363d" stroke-width="1" stroke-dasharray="6,4"/>
  <text x="90" y="95" fill="#484f58" font-size="10">PROPERTY BOUNDARY (APPROX)</text>

  <!-- MAIN INDOOR BUILDING SHELL -->
  <rect x="120" y="120" width="840" height="560" fill="#161b22" stroke="#58a6ff" stroke-width="4" rx="2"/>
  <text x="540" y="115" text-anchor="middle" fill="#58a6ff" font-size="11">INDOOR FACILITY (~120ft x 80ft)</text>

  <!-- PATIO -->
  <rect x="980" y="120" width="360" height="560" fill="#111820" stroke="#3fb950" stroke-width="3" stroke-dasharray="10,4" rx="2"/>
  <text x="1160" y="115" text-anchor="middle" fill="#3fb950" font-size="11">VOODOO GARDEN PATIO (ALL AGES)</text>

  <!-- Street labels -->
  <text x="60" y="400" fill="#6e7681" font-size="12" transform="rotate(-90,60,400)">BRADFORD AVE</text>
  <text x="700" y="980" text-anchor="middle" fill="#6e7681" font-size="12">6TH STREET</text>

  <!-- MAIN STAGE AREA -->
  <rect x="120" y="120" width="380" height="280" fill="#1a2332" stroke="#f78166" stroke-width="2" rx="1"/>
  <text x="310" y="145" text-anchor="middle" fill="#f78166" font-size="11" font-weight="bold">MAIN STAGE AREA</text>
  <text x="310" y="160" text-anchor="middle" fill="#8b949e" font-size="9">Zones 1 (Front) Zone 2 (Rear) Zone 3 (Dance Floor)</text>
  <rect x="145" y="170" width="300" height="130" fill="#1f2d3d" stroke="#f78166" stroke-width="2" rx="2"/>
  <text x="295" y="225" text-anchor="middle" fill="#f78166" font-size="13" font-weight="bold">STAGE A</text>
  <text x="295" y="242" text-anchor="middle" fill="#8b949e" font-size="9">MAIN STAGE</text>
  <text x="295" y="256" text-anchor="middle" fill="#8b949e" font-size="9">S16 Stage Box - 16 XLR Inputs - AES50-A - Mevo Cam</text>
  <rect x="390" y="250" width="60" height="40" fill="#21262d" stroke="#d29922" stroke-width="1.5" rx="2"/>
  <text x="420" y="267" text-anchor="middle" fill="#d29922" font-size="8" font-weight="bold">S16</text>
  <text x="420" y="280" text-anchor="middle" fill="#8b949e" font-size="7">AES50-A</text>
  <rect x="145" y="310" width="300" height="80" fill="#161b22" stroke="#f78166" stroke-width="1" stroke-dasharray="4,3" rx="1"/>
  <text x="295" y="350" text-anchor="middle" fill="#f78166" font-size="10">DANCE FLOOR (Zone 3)</text>
  <rect x="460" y="170" width="30" height="120" fill="#21262d" stroke="#d29922" stroke-width="1.5" rx="2"/>
  <text x="475" y="220" text-anchor="middle" fill="#d29922" font-size="7" transform="rotate(-90,475,220)">DriveRack to Main PA</text>
  <rect x="460" y="300" width="30" height="80" fill="#21262d" stroke="#bc8cff" stroke-width="1.5" rx="2"/>
  <text x="475" y="345" text-anchor="middle" fill="#bc8cff" font-size="7" transform="rotate(-90,475,345)">AMP RACK A</text>

  <!-- CORNER / DJ AREA -->
  <rect x="500" y="120" width="280" height="280" fill="#1a2332" stroke="#ff7b72" stroke-width="2" rx="1"/>
  <text x="640" y="145" text-anchor="middle" fill="#ff7b72" font-size="11" font-weight="bold">CORNER / DJ AREA</text>
  <text x="640" y="160" text-anchor="middle" fill="#8b949e" font-size="9">Zones 4 (DJ Monitors) Zone 5 (Corner Stage PA)</text>
  <rect x="520" y="170" width="120" height="100" fill="#1f2d3d" stroke="#ff7b72" stroke-width="2" rx="2"/>
  <text x="580" y="215" text-anchor="middle" fill="#ff7b72" font-size="11" font-weight="bold">STAGE B</text>
  <text x="580" y="230" text-anchor="middle" fill="#8b949e" font-size="9">DJ BOOTH</text>
  <text x="580" y="244" text-anchor="middle" fill="#8b949e" font-size="8">X32 Local XLR 1-8 - Mevo Cam</text>
  <rect x="650" y="170" width="110" height="100" fill="#1f2d3d" stroke="#ff7b72" stroke-width="2" rx="2"/>
  <text x="705" y="210" text-anchor="middle" fill="#ff7b72" font-size="11" font-weight="bold">STAGE C</text>
  <text x="705" y="225" text-anchor="middle" fill="#8b949e" font-size="9">ACOUSTIC</text>
  <text x="705" y="240" text-anchor="middle" fill="#8b949e" font-size="8">Mevo Cam</text>
  <rect x="760" y="170" width="30" height="100" fill="#21262d" stroke="#bc8cff" stroke-width="1.5" rx="2"/>
  <text x="775" y="225" text-anchor="middle" fill="#bc8cff" font-size="7" transform="rotate(-90,775,225)">AMP RACK B</text>

  <!-- MAIN BAR Zone 9 -->
  <rect x="120" y="400" width="380" height="160" fill="#12261a" stroke="#3fb950" stroke-width="2" rx="1"/>
  <text x="310" y="422" text-anchor="middle" fill="#3fb950" font-size="11" font-weight="bold">MAIN BAR -- Zone 9</text>
  <text x="310" y="437" text-anchor="middle" fill="#8b949e" font-size="9">ZonePRO Out 5/6 - AutoWarmth DSP</text>
  <rect x="140" y="447" width="340" height="35" fill="#21262d" stroke="#3fb950" stroke-width="1.5" rx="3"/>
  <text x="310" y="469" text-anchor="middle" fill="#3fb950" font-size="10">BAR COUNTER</text>

  <!-- INSIDE BAR Zones 7+8 -->
  <rect x="500" y="400" width="280" height="160" fill="#1a2620" stroke="#3fb950" stroke-width="2" rx="1"/>
  <text x="640" y="422" text-anchor="middle" fill="#3fb950" font-size="11" font-weight="bold">INSIDE BAR</text>
  <text x="640" y="437" text-anchor="middle" fill="#8b949e" font-size="9">Zone 7 (North) - Zone 8 (South)</text>
  <text x="640" y="452" text-anchor="middle" fill="#8b949e" font-size="8">ZonePRO Out 3/4 - 80Hz HPF</text>

  <!-- DINING Zone 12 -->
  <rect x="120" y="560" width="380" height="120" fill="#1a1a26" stroke="#a5d6ff" stroke-width="2" rx="1"/>
  <text x="310" y="582" text-anchor="middle" fill="#a5d6ff" font-size="11" font-weight="bold">DINING AREA -- Zone 12</text>
  <text x="310" y="597" text-anchor="middle" fill="#8b949e" font-size="9">ZonePRO Out 7/8 - Reduced SPL</text>

  <!-- CORRIDORS Zone 14 -->
  <rect x="500" y="560" width="140" height="120" fill="#1a1a22" stroke="#8b949e" stroke-width="1.5" rx="1"/>
  <text x="570" y="582" text-anchor="middle" fill="#8b949e" font-size="10" font-weight="bold">CORRIDORS</text>
  <text x="570" y="597" text-anchor="middle" fill="#484f58" font-size="8">Zone 14 - Amp Rack C</text>

  <!-- RESTROOMS Zone 13 -->
  <rect x="640" y="560" width="140" height="120" fill="#1a1a22" stroke="#8b949e" stroke-width="1.5" rx="1"/>
  <text x="710" y="582" text-anchor="middle" fill="#8b949e" font-size="10" font-weight="bold">RESTROOMS</text>
  <text x="710" y="597" text-anchor="middle" fill="#484f58" font-size="8">Zone 13 - Amp Rack C</text>

  <!-- TECH BOOTH -->
  <rect x="780" y="400" width="180" height="280" fill="#0d1f2d" stroke="#d29922" stroke-width="3" rx="2"/>
  <text x="870" y="422" text-anchor="middle" fill="#d29922" font-size="11" font-weight="bold">TECH BOOTH / FOH</text>
  <rect x="795" y="435" width="150" height="28" fill="#21262d" stroke="#d29922" stroke-width="2" rx="2"/>
  <text x="870" y="453" text-anchor="middle" fill="#d29922" font-size="9" font-weight="bold">Behringer X32 (FOH)</text>
  <rect x="795" y="468" width="150" height="22" fill="#21262d" stroke="#3fb950" stroke-width="1.5" rx="2"/>
  <text x="870" y="483" text-anchor="middle" fill="#3fb950" font-size="8">dbx ZonePRO 1260</text>
  <rect x="795" y="495" width="70" height="20" fill="#21262d" stroke="#58a6ff" stroke-width="1.5" rx="2"/>
  <text x="830" y="509" text-anchor="middle" fill="#58a6ff" font-size="7">PC-A (Main)</text>
  <rect x="870" y="495" width="75" height="20" fill="#21262d" stroke="#58a6ff" stroke-width="1.5" rx="2"/>
  <text x="907" y="509" text-anchor="middle" fill="#58a6ff" font-size="7">PC-B (DJ)</text>
  <rect x="795" y="520" width="70" height="20" fill="#21262d" stroke="#58a6ff" stroke-width="1.5" rx="2"/>
  <text x="830" y="534" text-anchor="middle" fill="#58a6ff" font-size="7">PC-C (Acoustic)</text>
  <rect x="795" y="545" width="150" height="18" fill="#21262d" stroke="#a5d6ff" stroke-width="1.5" rx="2"/>
  <text x="870" y="558" text-anchor="middle" fill="#a5d6ff" font-size="7">Managed Switch (7-VLAN)</text>
  <rect x="795" y="568" width="150" height="18" fill="#21262d" stroke="#bc8cff" stroke-width="1.5" rx="2"/>
  <text x="870" y="581" text-anchor="middle" fill="#bc8cff" font-size="7">Tablet -- Mixing Station Pro</text>
  <rect x="795" y="591" width="150" height="22" fill="#21262d" stroke="#bc8cff" stroke-width="1.5" rx="2"/>
  <text x="870" y="606" text-anchor="middle" fill="#bc8cff" font-size="8">AMP RACK C (Bar/Restrooms)</text>
  <rect x="780" y="640" width="180" height="40" fill="#1a1a22" stroke="#484f58" stroke-width="1.5" rx="1"/>
  <text x="870" y="657" text-anchor="middle" fill="#484f58" font-size="9">STAFF / KITCHEN -- Zone 15</text>
  <text x="870" y="670" text-anchor="middle" fill="#484f58" font-size="7">Amp Rack C Ch 5/6</text>

  <!-- PATIO STAGE -->
  <rect x="980" y="120" width="360" height="280" fill="#0f1f14" stroke="#3fb950" stroke-width="2" rx="1"/>
  <text x="1160" y="145" text-anchor="middle" fill="#3fb950" font-size="11" font-weight="bold">OUTDOOR PATIO -- Zone 10</text>
  <text x="1160" y="160" text-anchor="middle" fill="#8b949e" font-size="9">SD8 Out 1/2 -- 90ms delay (100ft from Main PA)</text>
  <rect x="1000" y="175" width="300" height="120" fill="#1f2d3d" stroke="#f78166" stroke-width="2" rx="2"/>
  <text x="1150" y="222" text-anchor="middle" fill="#f78166" font-size="13" font-weight="bold">PATIO STAGE</text>
  <text x="1150" y="239" text-anchor="middle" fill="#8b949e" font-size="9">SD8 Stage Box - 8 XLR Inputs - AES50-B - Mevo Cam</text>
  <rect x="1270" y="210" width="60" height="36" fill="#21262d" stroke="#d29922" stroke-width="1.5" rx="2"/>
  <text x="1300" y="225" text-anchor="middle" fill="#d29922" font-size="8" font-weight="bold">SD8</text>
  <text x="1300" y="240" text-anchor="middle" fill="#8b949e" font-size="7">AES50-B</text>
  <rect x="1000" y="305" width="300" height="80" fill="#111820" stroke="#3fb950" stroke-width="1" stroke-dasharray="4,3" rx="1"/>
  <text x="1150" y="350" text-anchor="middle" fill="#3fb950" font-size="10">PATIO SEATING (All Ages til 9PM)</text>
  <rect x="980" y="400" width="360" height="120" fill="#0f1f14" stroke="#3fb950" stroke-width="2" rx="1"/>
  <text x="1160" y="422" text-anchor="middle" fill="#3fb950" font-size="11" font-weight="bold">PATIO BAR -- Zone 11</text>
  <text x="1160" y="437" text-anchor="middle" fill="#8b949e" font-size="9">SD8 Out 3/4 - Delay matched Zone 10</text>
  <rect x="1000" y="447" width="300" height="28" fill="#21262d" stroke="#3fb950" stroke-width="1.5" rx="3"/>
  <text x="1150" y="465" text-anchor="middle" fill="#3fb950" font-size="9">PATIO BAR COUNTER</text>
  <rect x="980" y="520" width="360" height="160" fill="#0c1008" stroke="#2ea043" stroke-width="1" stroke-dasharray="6,4" rx="1"/>
  <text x="1160" y="545" text-anchor="middle" fill="#2ea043" font-size="10">PARKING / ARRIVAL</text>

  <!-- ENTRY -->
  <rect x="120" y="680" width="640" height="110" fill="#161b22" stroke="#484f58" stroke-width="2" rx="1"/>
  <text x="440" y="700" text-anchor="middle" fill="#8b949e" font-size="10" font-weight="bold">ENTRY / LOBBY AREA -- Zone 14</text>
  <rect x="340" y="787" width="60" height="6" fill="#58a6ff"/>
  <text x="370" y="800" text-anchor="middle" fill="#58a6ff" font-size="8">MAIN ENTRY</text>

  <!-- AES50 SIGNAL PATHS -->
  <line x1="795" y1="453" x2="450" y2="270" stroke="#d29922" stroke-width="2" stroke-dasharray="8,4"/>
  <text x="600" y="330" fill="#d29922" font-size="8" transform="rotate(-28,600,330)">AES50-A</text>
  <line x1="450" y1="270" x2="1000" y2="230" stroke="#d29922" stroke-width="2" stroke-dasharray="8,4"/>
  <text x="710" y="238" fill="#d29922" font-size="8">AES50-B</text>
  <line x1="795" y1="453" x2="490" y2="230" stroke="#f78166" stroke-width="1.5" stroke-dasharray="6,3"/>
  <line x1="795" y1="480" x2="640" y2="445" stroke="#3fb950" stroke-width="1.5" stroke-dasharray="5,3"/>
  <line x1="795" y1="480" x2="500" y2="455" stroke="#3fb950" stroke-width="1.5" stroke-dasharray="5,3"/>
  <line x1="870" y1="453" x2="870" y2="495" stroke="#58a6ff" stroke-width="1.5" stroke-dasharray="3,2"/>
  <line x1="960" y1="520" x2="1340" y2="180" stroke="#58a6ff" stroke-width="1.5" stroke-dasharray="6,4"/>

  <!-- CLOUD BOX -->
  <rect x="1340" y="120" width="50" height="110" fill="#0d1f2d" stroke="#58a6ff" stroke-width="1.5" rx="3"/>
  <text x="1365" y="138" text-anchor="middle" fill="#58a6ff" font-size="7" font-weight="bold">CLOUD</text>
  <text x="1365" y="151" text-anchor="middle" fill="#8b949e" font-size="6">Oracle</text>
  <text x="1365" y="163" text-anchor="middle" fill="#8b949e" font-size="6">A1.Flex</text>
  <text x="1365" y="175" text-anchor="middle" fill="#8b949e" font-size="6">AzuraCast</text>
  <text x="1365" y="187" text-anchor="middle" fill="#8b949e" font-size="6">Liquidsoap</text>
  <text x="1365" y="200" text-anchor="middle" fill="#8b949e" font-size="6">RTMP:8005</text>
  <text x="1365" y="222" text-anchor="middle" fill="#58a6ff" font-size="7">RTMP Stream</text>

  <!-- NDI VIDEO BANNER -->
  <rect x="120" y="800" width="840" height="50" fill="#0d1117" stroke="#a5d6ff" stroke-width="1" stroke-dasharray="6,3" rx="2"/>
  <text x="540" y="820" text-anchor="middle" fill="#a5d6ff" font-size="10" font-weight="bold">NDI VIDEO VLAN (192.168.20.0/24)</text>
  <text x="540" y="838" text-anchor="middle" fill="#484f58" font-size="8">3x Mevo Cams (NDI|HX 1080p/15Mbps) to 37x BirdDog PLAY Decoders to 37 Televisions distributed across all zones</text>

  <!-- LEGEND -->
  <rect x="120" y="858" width="840" height="120" fill="#0d1117" stroke="#30363d" stroke-width="1" rx="2"/>
  <text x="540" y="875" text-anchor="middle" fill="#8b949e" font-size="10" font-weight="bold">LEGEND</text>
  <rect x="135" y="882" width="14" height="10" fill="#1f2d3d" stroke="#f78166" stroke-width="2"/>
  <text x="156" y="892" fill="#f78166" font-size="8">Stage Areas</text>
  <rect x="238" y="882" width="14" height="10" fill="#12261a" stroke="#3fb950" stroke-width="2"/>
  <text x="259" y="892" fill="#3fb950" font-size="8">Audio Zones</text>
  <rect x="358" y="882" width="14" height="10" fill="#0d1f2d" stroke="#d29922" stroke-width="2"/>
  <text x="379" y="892" fill="#d29922" font-size="8">Tech Booth/Racks</text>
  <rect x="498" y="882" width="14" height="10" fill="#21262d" stroke="#58a6ff" stroke-width="2"/>
  <text x="519" y="892" fill="#58a6ff" font-size="8">Stream PCs/Network</text>
  <rect x="640" y="882" width="14" height="10" fill="#21262d" stroke="#bc8cff" stroke-width="2"/>
  <text x="661" y="892" fill="#bc8cff" font-size="8">Amp Racks</text>
  <line x1="135" y1="908" x2="153" y2="908" stroke="#d29922" stroke-width="2" stroke-dasharray="5,2"/>
  <text x="160" y="912" fill="#d29922" font-size="8">AES50 (Cat5e STP) Physical Audio Backbone</text>
  <line x1="135" y1="922" x2="153" y2="922" stroke="#3fb950" stroke-width="2" stroke-dasharray="5,2"/>
  <text x="160" y="926" fill="#3fb950" font-size="8">ZonePRO Zone Distribution</text>
  <line x1="135" y1="936" x2="153" y2="936" stroke="#58a6ff" stroke-width="2" stroke-dasharray="5,2"/>
  <text x="160" y="940" fill="#58a6ff" font-size="8">USB/RTMP Broadcast Chain</text>
  <line x1="400" y1="908" x2="418" y2="908" stroke="#f78166" stroke-width="2" stroke-dasharray="5,2"/>
  <text x="425" y="912" fill="#f78166" font-size="8">Main PA Signal (DriveRack to Amps)</text>
  <line x1="400" y1="922" x2="418" y2="922" stroke="#a5d6ff" stroke-width="2" stroke-dasharray="5,2"/>
  <text x="425" y="926" fill="#a5d6ff" font-size="8">NDI Video (Mevo to BirdDog to 37 TVs)</text>
  <text x="135" y="955" fill="#484f58" font-size="8">NOTE: Interior walls, doors, fixtures, utilities to be added. Exterior footprint based on satellite imagery. Scale approximate.</text>
  <text x="135" y="968" fill="#484f58" font-size="8">Stage/zone positions are functional estimates from repo docs. Verify all AV locations on-site before installation.</text>
  <text x="1380" y="990" text-anchor="end" fill="#30363d" font-size="8">v0.1 -- djdistraction/voodoo-hut-av-broadcast -- 2026-04-26</text>

</svg>
